<svg width="202" height="42" viewBox="0 0 202 42" fill="none" xmlns="http://www.w3.org/2000/svg">
<path d="M193.929 33.1473C191.752 33.1473 189.817 34.1139 188.365 35.3222C185.946 30.489 178.689 26.8641 169.981 26.8641C164.418 26.8641 159.58 28.314 156.193 30.489C153.774 26.1391 149.178 22.9975 143.856 22.9975C140.228 22.9975 136.841 24.4475 134.181 26.8641C129.343 19.6142 119.183 14.5394 107.33 14.5394C99.1055 14.5394 91.6067 16.956 86.285 21.0642C81.6889 8.73948 70.0779 0.0396729 56.2898 0.0396729C42.5017 0.0396729 30.8907 8.73948 26.2946 20.8225C24.1176 19.8559 21.4567 19.1309 18.7958 19.1309C8.87808 19.1309 0.895508 27.1057 0.895508 37.0139C0.895508 38.7055 1.13737 40.1555 1.62117 41.8471H25.5689H35.7286H77.8186H86.5269H130.552H136.358H150.871H156.435H185.463H188.365H201.912V41.6054C202.153 36.7722 198.525 33.1473 193.929 33.1473Z" fill="#F4EBFF"/>
</svg>
