<svg width="92" height="27" viewBox="0 0 92 27" fill="none" xmlns="http://www.w3.org/2000/svg">
<path d="M82.4867 16.0325C80.3097 16.0325 78.1326 16.9992 76.6812 18.2075C75.4717 8.54102 67.2473 0.807861 57.0876 0.807861C48.3793 0.807861 41.1224 6.60773 38.4616 14.3409C36.0426 10.2326 31.6885 7.57438 26.6086 7.57438C20.0774 7.57438 14.7557 12.1659 13.3043 17.9658C11.8529 16.7575 10.1597 16.0325 8.22449 16.0325C3.62845 16.0325 0 19.6574 0 24.249C0 25.2157 0.241898 26.1823 0.483795 26.9073H14.5138H16.2071H38.9454H39.4291H74.5042H75.9555H91.195C91.4369 26.1823 91.6788 25.2157 91.6788 24.249C91.195 19.8991 87.3247 16.0325 82.4867 16.0325Z" fill="#F4EBFF"/>
</svg>
