<svg width="168" height="86" viewBox="0 0 168 86" fill="none" xmlns="http://www.w3.org/2000/svg">
<g filter="url(#filter0_d)">
<path d="M149 0.781006H19C10.7157 0.781006 4 7.49674 4 15.781V42.781C4 51.0653 10.7157 57.781 19 57.781H28L48 77.781L68 57.781H149C157.284 57.781 164 51.0653 164 42.781V15.781C164 7.49674 157.284 0.781006 149 0.781006Z" fill="white"/>
<path d="M32.4844 29.0544C32.4844 30.8826 32.0208 32.3201 31.0938 33.3669C30.1719 34.4138 28.888 34.9373 27.2422 34.9373C25.5599 34.9373 24.2604 34.4242 23.3438 33.3982C22.4323 32.3669 21.9766 30.9138 21.9766 29.0388C21.9766 27.1794 22.4349 25.7393 23.3516 24.7185C24.2682 23.6925 25.5703 23.1794 27.2578 23.1794C28.8984 23.1794 30.1797 23.7003 31.1016 24.7419C32.0234 25.7836 32.4844 27.2211 32.4844 29.0544ZM23.3828 29.0544C23.3828 30.6013 23.7109 31.7758 24.3672 32.5779C25.0286 33.3748 25.987 33.7732 27.2422 33.7732C28.5078 33.7732 29.4635 33.3748 30.1094 32.5779C30.7552 31.781 31.0781 30.6065 31.0781 29.0544C31.0781 27.518 30.7552 26.3539 30.1094 25.5623C29.4688 24.7654 28.5182 24.3669 27.2578 24.3669C25.9922 24.3669 25.0286 24.768 24.3672 25.5701C23.7109 26.3669 23.3828 27.5284 23.3828 29.0544ZM39.8359 26.2185H41.2578L37.5625 30.3513L41.5625 34.781H40.0469L36.1406 30.4451V34.781H34.8438V26.2185H36.1406V30.3826L39.8359 26.2185ZM44.5156 32.9216L44.6328 33.1013C44.4974 33.6222 44.3021 34.2263 44.0469 34.9138C43.7917 35.6065 43.526 36.2498 43.25 36.8435H42.2734C42.4141 36.3018 42.5677 35.6326 42.7344 34.8357C42.9062 34.0388 43.026 33.4008 43.0938 32.9216H44.5156ZM55.1406 26.2341H56.3359V30.3826L59.875 26.2341H61.2969L57.7188 30.3826L61.6016 34.781H60.1016L56.3359 30.4451V34.781H55.1406V30.4451L51.3828 34.781H49.8906L53.7656 30.3826L50.1953 26.2341H51.6172L55.1406 30.3826V26.2341ZM70.4531 37.7419H69.1953V34.781H63.2109V37.7419H61.9609V33.6638H62.6328C63.3307 32.7159 63.8776 31.6039 64.2734 30.3279C64.6693 29.0518 64.875 27.682 64.8906 26.2185H69.2266V33.6638H70.4531V37.7419ZM67.9766 33.6638V27.2419H66.0547C65.987 28.3982 65.763 29.5701 65.3828 30.7576C65.0078 31.9399 64.5391 32.9086 63.9766 33.6638H67.9766ZM75.7891 34.9373C74.5234 34.9373 73.5234 34.5518 72.7891 33.781C72.0599 33.0102 71.6953 31.9399 71.6953 30.5701C71.6953 29.1899 72.0339 28.0935 72.7109 27.281C73.3932 26.4685 74.3073 26.0623 75.4531 26.0623C76.526 26.0623 77.375 26.4164 78 27.1248C78.625 27.8279 78.9375 28.7576 78.9375 29.9138V30.7341H73.0391C73.0651 31.7393 73.3177 32.5024 73.7969 33.0232C74.2812 33.544 74.9609 33.8044 75.8359 33.8044C76.7578 33.8044 77.6693 33.6117 78.5703 33.2263V34.3826C78.112 34.5805 77.6771 34.7211 77.2656 34.8044C76.8594 34.893 76.3672 34.9373 75.7891 34.9373ZM75.4375 27.1482C74.75 27.1482 74.2005 27.3722 73.7891 27.8201C73.3828 28.268 73.1432 28.8878 73.0703 29.6794H77.5469C77.5469 28.8617 77.3646 28.2367 77 27.8044C76.6354 27.3669 76.1146 27.1482 75.4375 27.1482ZM85.6016 33.531L85.8438 32.8044L86.1797 31.8826L88.5 26.2341H90.1484V34.781H89V27.7107L88.8438 28.1638L88.3906 29.3591L86.1797 34.781H85.0938L82.8828 29.3435C82.6068 28.6456 82.4167 28.1013 82.3125 27.7107V34.781H81.1562V26.2341H82.7422L84.9844 31.6638C85.2083 32.2367 85.4141 32.8591 85.6016 33.531ZM100.695 34.9373C99.4297 34.9373 98.4297 34.5518 97.6953 33.781C96.9661 33.0102 96.6016 31.9399 96.6016 30.5701C96.6016 29.1899 96.9401 28.0935 97.6172 27.281C98.2995 26.4685 99.2135 26.0623 100.359 26.0623C101.432 26.0623 102.281 26.4164 102.906 27.1248C103.531 27.8279 103.844 28.7576 103.844 29.9138V30.7341H97.9453C97.9714 31.7393 98.224 32.5024 98.7031 33.0232C99.1875 33.544 99.8672 33.8044 100.742 33.8044C101.664 33.8044 102.576 33.6117 103.477 33.2263V34.3826C103.018 34.5805 102.583 34.7211 102.172 34.8044C101.766 34.893 101.273 34.9373 100.695 34.9373ZM100.344 27.1482C99.6562 27.1482 99.1068 27.3722 98.6953 27.8201C98.2891 28.268 98.0495 28.8878 97.9766 29.6794H102.453C102.453 28.8617 102.271 28.2367 101.906 27.8044C101.542 27.3669 101.021 27.1482 100.344 27.1482ZM112.445 33.6638H116.242V26.2341H117.539V33.6638H118.766V37.7263H117.453V34.781H106.062V26.2341H107.359V33.6638H111.148V26.2341H112.445V33.6638ZM124.039 34.9373C122.773 34.9373 121.773 34.5518 121.039 33.781C120.31 33.0102 119.945 31.9399 119.945 30.5701C119.945 29.1899 120.284 28.0935 120.961 27.281C121.643 26.4685 122.557 26.0623 123.703 26.0623C124.776 26.0623 125.625 26.4164 126.25 27.1248C126.875 27.8279 127.188 28.7576 127.188 29.9138V30.7341H121.289C121.315 31.7393 121.568 32.5024 122.047 33.0232C122.531 33.544 123.211 33.8044 124.086 33.8044C125.008 33.8044 125.919 33.6117 126.82 33.2263V34.3826C126.362 34.5805 125.927 34.7211 125.516 34.8044C125.109 34.893 124.617 34.9373 124.039 34.9373ZM123.688 27.1482C123 27.1482 122.451 27.3722 122.039 27.8201C121.633 28.268 121.393 28.8878 121.32 29.6794H125.797C125.797 28.8617 125.615 28.2367 125.25 27.8044C124.885 27.3669 124.365 27.1482 123.688 27.1482ZM130.578 31.6326H129.758L129.359 23.3591H130.977L130.578 31.6326ZM129.219 33.9529C129.219 33.2445 129.531 32.8904 130.156 32.8904C130.458 32.8904 130.69 32.9815 130.852 33.1638C131.018 33.3461 131.102 33.6091 131.102 33.9529C131.102 34.2862 131.018 34.5466 130.852 34.7341C130.685 34.9164 130.453 35.0076 130.156 35.0076C129.885 35.0076 129.661 34.9268 129.484 34.7654C129.307 34.5987 129.219 34.3279 129.219 33.9529Z" fill="#1E0606"/>
</g>
<defs>
<filter id="filter0_d" x="0" y="0.781006" width="168" height="85" filterUnits="userSpaceOnUse" color-interpolation-filters="sRGB">
<feFlood flood-opacity="0" result="BackgroundImageFix"/>
<feColorMatrix in="SourceAlpha" type="matrix" values="0 0 0 0 0 0 0 0 0 0 0 0 0 0 0 0 0 0 127 0"/>
<feOffset dy="4"/>
<feGaussianBlur stdDeviation="2"/>
<feColorMatrix type="matrix" values="0 0 0 0 0 0 0 0 0 0 0 0 0 0 0 0 0 0 0.25 0"/>
<feBlend mode="normal" in2="BackgroundImageFix" result="effect1_dropShadow"/>
<feBlend mode="normal" in="SourceGraphic" in2="effect1_dropShadow" result="shape"/>
</filter>
</defs>
</svg>
