<svg width="276" height="375" xmlns="http://www.w3.org/2000/svg" fill="none">

 <g>
  <title>Layer 1</title>
  <path id="svg_1" fill="#F0A073" d="m190.883,269.683c-0.242,1.45 -0.726,3.383 -1.694,5.316c0,0 -0.725,1.45 -2.177,3.625c-0.242,0.483 -0.725,1.208 -1.209,1.933c-1.694,2.9 -4.113,6.767 -6.531,10.875c-2.178,3.625 -4.355,7.492 -6.774,11.6c-3.87,6.766 -7.982,14.016 -11.369,20.541c-3.628,7.008 -6.531,12.808 -7.74,16.675c-1.452,4.591 2.419,15.224 3.386,17.641c0.242,0.242 0.242,0.483 0.242,0.483c1.451,2.175 3.387,4.108 5.322,6.042c2.902,3.141 5.08,5.316 1.935,5.558l-2.419,-0.967l-4.354,-1.691l-11.369,-4.35c-1.936,-0.725 -3.387,-2.417 -3.871,-4.35l-1.693,-6.283l-2.661,7.25l-4.112,-1.692c3.628,-9.183 0,-12.566 9.192,-21.991c2.661,-2.659 6.047,-22.716 10.16,-38.183c1.451,-5.8 3.144,-10.874 4.838,-14.258c1.693,-3.383 3.386,-6.041 5.321,-8.7c0.242,-0.483 0.726,-0.966 0.968,-1.45c2.661,-3.624 5.322,-6.524 7.015,-8.458c1.693,-1.691 2.661,-2.416 2.661,-2.416c8.466,-2.9 18.142,-1.45 16.933,7.25z"/>
  <path id="svg_2" fill="#C21E1D" d="m142.501,335.898c0,0 0.483,0 0.725,0.242c2.419,1.45 3.871,4.108 4.113,6.766l0.725,7.008c0.242,3.142 2.419,5.8 5.322,6.767l3.387,1.208c0,0.242 0,0.242 0,0.242c4.112,5.8 12.094,11.116 7.015,11.358l-18.143,-7.008c-1.935,-0.725 -3.386,-2.417 -3.87,-4.35l-1.693,-6.283l-2.661,7.249l-4.112,-1.691c3.628,-8.7 0,-12.325 9.192,-21.508z"/>
  <path id="svg_3" fill="#456F96" d="m117.826,221.109l37.978,19.091c0,0 -1.693,6.766 -2.177,6.766c-12.337,-2.174 -37.494,-9.666 -43.541,-13.774c-7.257,-4.592 -0.726,-16.916 7.74,-12.083z"/>
  <path id="svg_4" fill="#21201D" d="m135.484,116.952c-0.968,-2.658 -1.451,-5.799 -3.629,-7.491c6.048,-0.242 11.853,4.108 13.789,9.666c0.725,2.417 0.967,5.075 2.419,7.009c-5.564,-0.242 -10.644,-3.867 -12.579,-9.184z"/>
  <path id="svg_5" fill="#FFAE80" d="m133.549,143.535l-0.725,3.625l-0.968,3.867l-0.967,4.591l-0.968,4.592l-1.209,6.525l-17.417,-12.325l6.531,-24.891l15.723,14.016z"/>
  <path id="svg_6" fill="#FFAE80" d="m128.469,160.21c5.564,22.957 16.691,22.232 18.143,35.04c0.967,9.425 -8.951,13.05 -8.951,13.05c-2.902,13.292 -5.079,24.891 -4.112,33.591c0,0 -28.302,-5.316 -30.237,-5.8c4.596,-13.291 -3.6284,-27.791 -3.6284,-52.199c0,-13.049 12.0944,-31.174 12.0944,-31.174c0,0 15.966,3.867 16.691,7.492z"/>
  <path id="svg_7" fill="#5589B9" d="m147.338,195.251c0,0.483 0,1.208 0,1.691c-0.242,8.217 -9.676,11.358 -9.676,11.358c0,0.725 0,1.209 0,1.934c0,0.725 0,1.208 0,1.691c0,1.934 -0.242,3.867 -0.484,5.8c-0.242,3.867 -0.726,7.25 -1.21,10.392c-0.483,3.866 -1.209,7.733 -1.451,11.116c0,0.483 0,0.967 -0.242,1.45c0,0 -0.726,0 -1.935,-0.242c-2.661,-0.483 -7.983,-1.208 -13.304,-1.933c-0.242,0 -0.726,0 -0.968,-0.241c-7.015,-0.967 -13.788,-1.934 -14.514,-2.175c0.242,-0.967 0.726,-1.934 0.726,-2.9c0.242,-0.484 0.242,-0.967 0.242,-1.45c0.242,-2.175 0.484,-4.35 0.242,-6.525c0,-0.725 0,-1.45 0,-2.175c-0.242,-3.867 -1.21,-8.217 -1.935,-12.808c-0.968,-5.075 -1.936,-10.633 -2.419,-17.158c0,-0.967 -0.242,-1.933 -0.242,-2.9c0,-1.933 -0.2422,-4.108 -0.2422,-6.283c0,-12.808 7.9822,-24.65 8.4662,-25.375c0,0 2.661,0.967 5.564,1.934c0,0 12.82,3.383 25.157,20.057c3.87,4.834 7.499,7.975 8.225,14.742z"/>
  <path id="svg_8" fill="#FFAE80" d="m131.858,151.026l-0.968,4.592l-0.967,4.591c-2.177,-1.45 -5.564,-4.108 -6.531,-5.558c-2.903,-4.35 -3.871,-8.941 -4.113,-14.258c2.419,4.108 7.257,7.491 11.369,9.908c0.484,0.483 0.968,0.483 1.21,0.725z" opacity="0.4"/>
  <path id="svg_9" fill="#FFAE80" d="m145.645,135.319c-1.935,-2.659 -3.145,-4.109 -3.628,-6.284c6.289,-30.9322 -57.088,-20.782 -33.14,11.842l6.047,-0.725c3.145,7.733 8.225,12.566 18.142,14.258c3.387,-0.242 6.29,0 8.709,-2.417c1.451,-2.175 2.177,-5.558 1.935,-10.633c0,-0.966 0.484,-1.933 1.451,-2.416c0.726,-0.725 1.693,-1.934 0.484,-3.625z"/>
  <path id="svg_10" fill="#21201D" d="m111.296,154.41c-1.935,-2.659 -13.0625,-10.15 -13.3044,-24.891c-0.7257,-30.4498 41.8484,-26.583 41.8484,-13.05c0,0 -0.242,-2.175 -6.531,8.216c-3.629,6.042 -9.918,6.767 -11.853,14.983c-3.629,14.742 -10.16,14.742 -10.16,14.742z"/>
  <path id="svg_11" fill="#FFAE80" d="m189.428,373.355l-19.352,-2.416c-1.935,-0.242 -3.871,-1.45 -4.838,-3.142l-3.145,-5.558l-0.242,2.175l-0.483,4.592l0,0.966l-4.355,-0.483c0,-0.725 0.242,-1.45 0.242,-2.175c0.242,-3.867 -0.484,-6.525 -0.484,-9.425c0,-3.141 0.484,-6.525 3.871,-12.083c1.209,-2.175 0.967,-11.6 0.726,-22.233c-0.242,-6.525 -0.484,-13.533 -0.242,-19.574c0,-5.075 0.483,-9.425 1.209,-12.567c0.484,-1.691 0.968,-3.625 1.451,-5.075c0.726,-2.175 1.452,-4.108 2.178,-6.041c0.483,-1.208 0.967,-2.417 1.451,-3.625c1.209,-2.658 2.419,-4.592 3.145,-6.283c1.209,-1.934 1.935,-3.142 1.935,-3.142c7.982,-5.075 17.658,-6.283 18.626,2.417c0.242,1.45 0,3.383 -0.242,5.558c0,0 -0.242,1.208 -0.968,2.9c-0.242,0.966 -0.725,1.933 -0.967,3.141c-0.968,2.9 -1.935,6.767 -3.387,11.117c-0.967,2.9 -1.935,6.283 -2.661,9.666c-4.838,16.917 -10.159,36.975 -10.643,45.191c-0.484,5.558 7.982,16.916 7.982,16.916c5.08,4.592 14.03,7.734 9.193,9.183z"/>
  <path id="svg_12" fill="#EA4A49" d="m160.399,345.805c0,0 0.484,0 0.968,0.242c2.661,0.966 4.596,2.9 5.564,5.558l2.419,6.767c0.967,2.899 3.628,5.074 6.773,5.316l3.628,0.242c0,0.241 0.242,0.241 0.242,0.241c5.322,4.592 14.514,7.733 9.676,9.425l-19.352,-2.416c-1.935,-0.242 -3.87,-1.45 -4.838,-3.142l-3.144,-5.558l-0.968,7.733l-4.354,-0.483c1.209,-10.15 -3.145,-12.567 3.386,-23.925z"/>
  <path id="svg_13" fill="#FFAE80" d="m124.601,136.527c0.726,3.142 1.21,5.075 -0.725,5.558c-2.178,0.483 -5.806,-1.692 -6.532,-4.833c-0.725,-3.142 0.968,-5.317 3.145,-5.8c2.177,-0.483 3.387,1.933 4.112,5.075z"/>
  <path id="svg_14" fill="white" d="m123.872,141.119c0.242,0.724 -0.242,1.691 -1.209,1.933c-0.726,0.241 -1.693,-0.242 -1.935,-1.209c-0.242,-0.725 0.242,-1.691 1.209,-1.933c0.968,0 1.693,0.484 1.935,1.209z"/>
  <path id="svg_15" fill="#456F96" d="m147.338,196.942c-0.242,8.217 -9.434,11.358 -9.434,11.358c0,0.725 0,1.209 0,1.934c0,0.483 0,1.208 0,1.691c0,1.934 -0.242,3.867 -0.242,5.8c-0.484,3.867 -0.726,7.25 -1.21,10.392c-0.483,3.866 -1.209,7.733 -1.451,11.116l-2.177,-0.483l-14.514,-2.9l-12.82,-2.658c-0.242,-0.484 -0.484,-0.967 -0.726,-1.45c0.242,-2.175 0.484,-4.35 0.242,-6.525c0,-0.725 0,-1.45 0,-2.175c-0.242,-3.867 -1.21,-8.217 -1.935,-12.808c-0.968,-5.075 -1.935,-10.633 -2.419,-17.158c0,-0.967 -0.242,-1.933 -0.242,-2.9c0,-1.933 -0.242,-4.108 -0.242,-6.283c0,-12.808 7.983,-24.65 8.466,-25.375c-8.224,22.233 3.387,27.066 15.966,30.933l8.224,15.708c5.564,-0.483 10.885,-3.625 14.514,-8.217z" opacity="0.3"/>
  <path id="svg_16" fill="#EA4A49" d="m174.916,252.282c0,0 -39.429,3.384 -56.12,-14.016c-4.596,-4.592 -10.885,-4.108 -13.788,-5.075l12.82,2.658l14.514,2.9c3.145,0.484 20.803,4.109 42.574,13.533z" opacity="0.5"/>
  <path id="svg_17" fill="#FFAE80" d="m165.479,242.133l12.579,3.624l5.564,6.284l-2.419,8.458l-5.564,1.208c-1.21,-1.208 -0.726,-2.416 0.968,-2.9l-3.387,-4.591c-3.628,0.241 -6.289,-3.142 -8.708,-5.075l0.967,-7.008z"/>
  <path id="svg_18" fill="#5589B9" d="m132.341,218.692l33.14,23.441c0,0 -0.726,7.25 -0.968,7.25c-12.579,-3.625 -35.075,-12.808 -40.881,-17.641c-7.015,-5.558 1.21,-17.883 8.709,-13.05z"/>
  <path id="svg_19" fill="#EA4A49" d="m191.121,277.898c-0.725,4.35 -2.177,9.183 -3.87,14.741c-0.484,0 -0.726,0.001 -1.209,-0.241c-0.242,0 -0.484,0 -0.726,0c-1.935,-0.242 -4.112,-0.725 -6.047,-0.967c-5.322,-1.208 -10.644,-2.9 -15.966,-5.075c-1.935,-0.725 -3.87,-1.691 -5.805,-2.658c-2.661,-1.208 -5.322,-2.9 -7.983,-4.35c0,0 -31.446,0.483 -44.509,-2.658c-5.3214,-1.208 -9.1918,-5.558 -10.1594,-10.875c-0.9675,-5.316 -1.4513,-9.425 0.4838,-15.466c0.4838,-1.934 1.4514,-4.109 2.419,-6.525c1.4514,-3.383 3.6286,-6.767 6.5316,-10.392l0.967,0l12.821,2.659l14.513,2.9c3.145,0.483 41.123,9.908 53.702,20.057c0.967,0.725 1.935,1.692 2.66,2.417c0.968,1.208 1.694,2.417 2.177,3.625c1.21,3.383 0.968,7.733 0,12.808z"/>
  <path id="svg_20" fill="#5589B9" d="m122.181,177.609l13.062,45.433c3.387,9.183 -10.401,15.949 -14.513,4.108l-15.482,-44.466c-4.354,-15.466 13.063,-17.641 16.933,-5.075z"/>
  <path id="svg_21" fill="#EA4A49" d="m186.042,292.399c-0.242,0 -0.484,0 -0.726,0c-1.935,-0.242 -4.112,-0.726 -6.047,-0.967c-5.322,-1.209 -10.644,-2.9 -15.966,-5.075c-1.935,-0.725 -3.87,-1.692 -5.805,-2.658c-2.661,-1.209 -5.322,-2.9 -7.983,-4.35c0,0 -31.446,0.483 -44.509,-2.659c-5.3214,-1.208 -9.1918,-5.558 -10.1594,-10.874c-0.9675,-5.317 -1.4513,-9.425 0.4838,-15.467c5.0796,16.675 8.7086,32.141 58.7806,19.333c9.918,14.983 31.931,22.717 31.931,22.717z" opacity="0.5"/>
  <path id="svg_22" fill="#F9B233" d="m147.861,289.95l0,73.707c0,5.8 -4.838,10.633 -10.644,10.633l-42.5735,0c-5.8056,0 -10.6435,-4.833 -10.6435,-10.633l0,-73.707c0,-5.8 4.8379,-10.633 10.6435,-10.633l42.5735,0c5.806,0 10.644,4.592 10.644,10.633z"/>
  <path id="svg_23" fill="#5E4A4C" d="m147.619,298.167l-63.619,0l0,5.799l63.619,0l0,-5.799z"/>
  <path id="svg_24" fill="#5E4A4C" d="m100.935,279.317l-3.8705,0l0,94.973l3.8705,0l0,-94.973z"/>
  <path id="svg_25" fill="#5E4A4C" d="m135.525,279.317l-3.871,0l0,87.723l3.871,0l0,-87.723z"/>
  <path id="svg_26" fill="black" d="m265.419,374.057l-95.791,0c-4.838,0 -8.708,-3.867 -8.708,-8.7l0,-59.932c0,-4.833 3.87,-8.7 8.708,-8.7l95.791,0c4.838,0 8.708,3.867 8.708,8.7l0,59.932c0.242,4.833 -3.628,8.7 -8.708,8.7z"/>
  <path id="svg_27" fill="black" d="m229.622,291.65c-7.741,-3.142 -16.449,-3.142 -24.19,0c-1.451,0.483 -2.903,0 -3.628,-1.209c-0.726,-1.208 0,-2.9 1.693,-3.625c8.95,-3.625 19.11,-3.625 28.06,0c1.693,0.725 2.419,2.417 1.693,3.625c-0.725,1.209 -2.177,1.692 -3.628,1.209z"/>
  <path id="svg_28" fill="#DADADA" d="m204.703,296.483l-1.935,0l0,-6.525c0,-0.484 0.483,-0.967 0.967,-0.967c0.484,0 0.968,0.483 0.968,0.967l0,6.525z"/>
  <path id="svg_29" fill="#DADADA" d="m232.523,296.483l-1.935,0l0,-6.525c0,-0.484 0.484,-0.967 0.967,-0.967c0.484,0 0.968,0.483 0.968,0.967l0,6.525z"/>
  <path id="svg_30" fill="#DADADA" d="m173.016,307.841c0,0.483 -0.484,0.967 -0.968,0.967l-11.127,0c-0.484,0 -0.968,-0.484 -0.968,-0.967l0,-3.625c0,-4.591 3.87,-8.458 8.467,-8.458l3.628,0c0.484,0 0.968,0.483 0.968,0.967l0,11.116z"/>
  <path id="svg_31" fill="#DADADA" d="m262.035,307.841c0,0.483 0.484,0.967 0.968,0.967l11.127,0c0.484,0 0.968,-0.484 0.968,-0.967l0,-3.625c0,-4.591 -3.871,-8.458 -8.467,-8.458l-3.628,0c-0.484,0 -0.968,0.483 -0.968,0.967l0,11.116z"/>
  <path id="svg_32" fill="#DADADA" d="m262.035,362.698c0,-0.483 0.484,-0.967 0.968,-0.967l11.127,0c0.484,0 0.968,0.484 0.968,0.967l0,3.625c0,4.591 -3.871,8.458 -8.467,8.458l-3.628,0c-0.484,0 -0.968,-0.483 -0.968,-0.967l0,-11.116z"/>
  <path id="svg_33" fill="#DADADA" d="m173.016,362.698c0,-0.483 -0.484,-0.967 -0.968,-0.967l-11.127,0c-0.484,0 -0.968,0.484 -0.968,0.967l0,3.625c0,4.591 3.87,8.458 8.467,8.458l3.628,0c0.484,0 0.968,-0.483 0.968,-0.967l0,-11.116z"/>
  <path id="svg_34" fill="#EA4A49" d="m178.097,320.157l-22.739,0l0,-5.316c0,-2.175 -1.693,-3.867 -3.87,-3.867l-16.207,0c-2.177,0 -3.87,1.692 -3.87,3.867l0,5.316l-22.739,0c-5.321,0 -9.4337,4.108 -9.4337,9.425l0,35.041c0,5.316 4.1127,9.425 9.4337,9.425l69.666,0c5.322,0 9.434,-4.109 9.434,-9.425l0,-35.041c-0.241,-5.075 -4.354,-9.425 -9.675,-9.425zm-43.058,-5.316c0,-0.242 0.242,-0.242 0.242,-0.242l16.207,0c0.242,0 0.242,0.242 0.242,0.242l0,5.316l-16.691,0l0,-5.316z"/>
  <path id="svg_35" fill="#FDFDFD" d="m123.67,320.158l-7.74,0l0,53.89l7.74,0l0,-53.89z"/>
  <path id="svg_36" fill="#FDFDFD" d="m170.84,320.158l-7.74,0l0,53.89l7.74,0l0,-53.89z"/>
  <path id="svg_37" fill="#231F20" d="m124.88,336.107l-10.159,0l0,-9.425l10.159,0l0,9.425zm-7.74,-2.416l5.321,0l0,-4.592l-5.321,0l0,4.592z"/>
  <path id="svg_38" fill="#231F20" d="m172.05,336.107l-10.159,0l0,-9.425l10.159,0l0,9.425zm-7.74,-2.416l5.321,0l0,-4.592l-5.321,0l0,4.592z"/>
 </g>
</svg>